<svg width="312" height="56" viewBox="0 0 312 56" fill="none" xmlns="http://www.w3.org/2000/svg">
<path d="M0.0625 36V0.599998H3.6625V36H0.0625ZM5.4625 36V0.599998H10.8625V36H5.4625ZM16.2625 36V0.599998H18.0625V36H16.2625ZM9.0025 42.6H5.1025V41.22H14.7025V42.6H10.6225V55.14H9.0025V42.6ZM19.8672 36V0.599998H23.4672V36H19.8672ZM28.8672 36V0.599998H30.6672V36H28.8672ZM32.4672 36V0.599998H34.2672V36H32.4672ZM25.3272 41.22H27.1272V41.4C27.0472 41.48 26.9872 41.58 26.9472 41.7C26.9472 41.78 26.9472 41.96 26.9472 42.24V47.16H32.3472V41.22H34.2072V41.4C34.1272 41.48 34.0672 41.58 34.0272 41.7C34.0272 41.78 34.0272 41.96 34.0272 42.24V55.14H32.3472V48.54H26.9472V55.14H25.3272V41.22ZM39.6719 36V0.599998H41.4719V36H39.6719ZM46.8719 36V0.599998H50.4719V36H46.8719ZM52.2719 36V0.599998H54.0719V36H52.2719ZM45.3119 41.22H53.8319V42.6H46.7519V47.16H52.6319V48.6H46.7519V53.76H53.7719V55.14H45.3119V41.22ZM59.4766 36V0.599998H63.0766V36H59.4766ZM64.8766 36V0.599998H68.4766V36H64.8766ZM72.0766 36V0.599998H75.6766V36H72.0766ZM79.2812 36V0.599998H82.8813V36H79.2812ZM84.6813 36V0.599998H88.2813V36H84.6813ZM91.8813 36V0.599998H95.4813V36H91.8813ZM99.0859 36V0.599998H102.686V36H99.0859ZM104.486 36V0.599998H108.086V36H104.486ZM111.686 36V0.599998H115.286V36H111.686ZM118.891 36V0.599998H120.691V36H118.891ZM126.091 36V0.599998H127.891V36H126.091ZM129.691 36V0.599998H133.291V36H129.691ZM124.291 41.22H128.251C129.771 41.22 130.911 41.52 131.671 42.12C132.471 42.72 132.871 43.56 132.871 44.64C132.871 45.32 132.691 45.94 132.331 46.5C131.931 47.06 131.411 47.46 130.771 47.7C131.571 47.98 132.211 48.44 132.691 49.08C133.171 49.76 133.411 50.48 133.411 51.24C133.411 52.44 132.971 53.4 132.091 54.12C131.251 54.8 129.951 55.14 128.191 55.14H124.291V41.22ZM128.011 46.98C130.211 46.98 131.311 46.24 131.311 44.76C131.311 44.12 131.051 43.6 130.531 43.2C130.051 42.76 129.291 42.54 128.251 42.54H125.791V46.98H128.011ZM128.491 53.76C130.651 53.76 131.731 52.88 131.731 51.12C131.731 49.24 130.511 48.3 128.071 48.3H125.791V53.76H128.491ZM138.695 36V0.599998H142.295V36H138.695ZM147.695 36V0.599998H149.495V36H147.695ZM154.895 36V0.599998H156.695V36H154.895ZM144.815 53.82H147.575V42.54H144.995V41.22H151.895V42.54H149.135V53.82H152.015V55.14H144.815V53.82ZM158.5 36V0.599998H162.1V36H158.5ZM163.9 36V0.599998H165.7V36H163.9ZM171.1 36V0.599998H172.9V36H171.1ZM169 55.38C167.88 55.38 166.92 55.08 166.12 54.48C165.32 53.92 164.7 53.1 164.26 52.02C163.82 50.98 163.6 49.76 163.6 48.36C163.6 46.52 163.88 45.06 164.44 43.98C165 42.9 165.68 42.14 166.48 41.7C167.28 41.3 168.08 41.1 168.88 41.1C169.72 41.1 170.52 41.32 171.28 41.76C172.08 42.16 172.66 42.72 173.02 43.44L171.94 44.28L171.76 44.46L171.7 44.34C171.7 44.22 171.68 44.1 171.64 43.98C171.56 43.9 171.44 43.76 171.28 43.56C170.92 43.16 170.56 42.88 170.2 42.72C169.84 42.56 169.4 42.48 168.88 42.48C167.8 42.48 166.9 42.9 166.18 43.74C165.5 44.62 165.16 46.04 165.16 48C165.16 49.92 165.5 51.4 166.18 52.44C166.86 53.48 167.8 54 169 54C169.44 54 169.9 53.92 170.38 53.76C170.9 53.64 171.32 53.44 171.64 53.16V49.86H169.12V48.48H173.08V53.94C171.76 54.9 170.4 55.38 169 55.38ZM178.305 36V0.599998H181.905V36H178.305ZM183.705 36V0.599998H187.305V36H183.705ZM190.905 36V0.599998H194.505V36H190.905ZM198.109 36V0.599998H201.709V36H198.109ZM203.509 36V0.599998H207.109V36H203.509ZM210.709 36V0.599998H214.309V36H210.709ZM217.914 36V0.599998H221.514V36H217.914ZM223.314 36V0.599998H228.714V36H223.314ZM234.114 36V0.599998H235.914V36H234.114ZM226.854 42.6H222.954V41.22H232.554V42.6H228.474V55.14H226.854V42.6ZM237.719 36V0.599998H241.319V36H237.719ZM246.719 36V0.599998H248.519V36H246.719ZM250.319 36V0.599998H252.119V36H250.319ZM243.179 41.22H244.979V41.4C244.899 41.48 244.839 41.58 244.799 41.7C244.799 41.78 244.799 41.96 244.799 42.24V47.16H250.199V41.22H252.059V41.4C251.979 41.48 251.919 41.58 251.879 41.7C251.879 41.78 251.879 41.96 251.879 42.24V55.14H250.199V48.54H244.799V55.14H243.179V41.22ZM257.523 36V0.599998H261.123V36H257.523ZM266.523 36V0.599998H268.323V36H266.523ZM270.123 36V0.599998H275.523V36H270.123ZM263.103 41.22H267.183C268.783 41.22 269.943 41.58 270.663 42.3C271.423 42.98 271.803 43.96 271.803 45.24C271.803 46.04 271.543 46.8 271.023 47.52C270.503 48.24 269.823 48.72 268.983 48.96L272.223 55.14H270.483L267.363 49.02H264.663V55.14H263.103V41.22ZM267.363 47.64C268.323 47.64 269.043 47.42 269.523 46.98C269.963 46.58 270.183 46 270.183 45.24C270.183 44.48 269.963 43.86 269.523 43.38C269.043 42.94 268.323 42.72 267.363 42.72H264.663V47.64H267.363ZM277.328 36V0.599998H279.128V36H277.328ZM284.528 36V0.599998H288.128V36H284.528ZM289.928 36V0.599998H291.728V36H289.928ZM282.968 41.22H291.488V42.6H284.408V47.16H290.288V48.6H284.408V53.76H291.428V55.14H282.968V41.22ZM297.133 36V0.599998H298.933V36H297.133ZM304.333 36V0.599998H307.933V36H304.333ZM309.733 36V0.599998H311.533V36H309.733ZM302.773 41.22H311.293V42.6H304.213V47.16H310.093V48.6H304.213V53.76H311.233V55.14H302.773V41.22Z" fill="white"/>
</svg>
